<svg data-v-423bf9ae="" xmlns="http://www.w3.org/2000/svg" viewBox="0 0 772 90" class="iconLeft"><!----><!----><!----><g data-v-423bf9ae="" id="04554232-1a21-4269-867a-5c351c75ef9a" fill="#FFFFFF" transform="matrix(6.08519290965367,0,0,6.08519290965367,104.40161199824195,8.914806613509171)"><path d="M12.85 5.95L12.85 5.95L12.85 5.95Q12.85 7.16 12.43 8.06L12.43 8.06L12.43 8.06Q12.00 8.95 11.27 9.54L11.27 9.54L11.27 9.54Q11.74 9.65 12.16 9.72L12.16 9.72L12.16 9.72Q12.58 9.80 12.91 9.86L12.91 9.86L12.91 9.86Q13.30 9.93 13.64 9.97L13.64 9.97L13.32 10.86L10.25 10.17L10.25 10.17Q9.53 10.50 8.69 10.66L8.69 10.66L8.69 10.66Q7.84 10.82 6.90 10.82L6.90 10.82L6.90 10.82Q5.64 10.82 4.55 10.53L4.55 10.53L4.55 10.53Q3.45 10.25 2.65 9.65L2.65 9.65L2.65 9.65Q1.84 9.05 1.38 8.13L1.38 8.13L1.38 8.13Q0.92 7.21 0.92 5.95L0.92 5.95L0.92 5.95Q0.92 5.11 1.13 4.42L1.13 4.42L1.13 4.42Q1.35 3.73 1.73 3.19L1.73 3.19L1.73 3.19Q2.11 2.65 2.66 2.25L2.66 2.25L2.66 2.25Q3.20 1.85 3.87 1.59L3.87 1.59L3.87 1.59Q4.53 1.33 5.30 1.20L5.30 1.20L5.30 1.20Q6.06 1.07 6.90 1.07L6.90 1.07L6.90 1.07Q8.16 1.07 9.25 1.36L9.25 1.36L9.25 1.36Q10.34 1.65 11.14 2.25L11.14 2.25L11.14 2.25Q11.94 2.84 12.39 3.76L12.39 3.76L12.39 3.76Q12.85 4.68 12.85 5.95ZM11.97 5.95L11.97 5.95L11.97 5.95Q11.97 4.95 11.65 4.18L11.65 4.18L11.65 4.18Q11.32 3.42 10.68 2.90L10.68 2.90L10.68 2.90Q10.05 2.37 9.10 2.10L9.10 2.10L9.10 2.10Q8.16 1.83 6.90 1.83L6.90 1.83L6.90 1.83Q5.65 1.83 4.70 2.11L4.70 2.11L4.70 2.11Q3.75 2.38 3.10 2.90L3.10 2.90L3.10 2.90Q2.46 3.42 2.13 4.19L2.13 4.19L2.13 4.19Q1.80 4.96 1.80 5.95L1.80 5.95L1.80 5.95Q1.80 6.95 2.13 7.71L2.13 7.71L2.13 7.71Q2.46 8.48 3.10 9.00L3.10 9.00L3.10 9.00Q3.75 9.52 4.70 9.79L4.70 9.79L4.70 9.79Q5.65 10.06 6.90 10.06L6.90 10.06L6.90 10.06Q8.16 10.06 9.10 9.79L9.10 9.79L9.10 9.79Q10.05 9.52 10.68 9.00L10.68 9.00L10.68 9.00Q11.32 8.48 11.65 7.71L11.65 7.71L11.65 7.71Q11.97 6.95 11.97 5.95ZM15.31 1.24L16.18 1.24L16.18 7.44L16.18 7.44Q16.17 8.23 16.38 8.74L16.38 8.74L16.38 8.74Q16.58 9.24 16.97 9.53L16.97 9.53L16.97 9.53Q17.36 9.82 17.91 9.94L17.91 9.94L17.91 9.94Q18.46 10.05 19.15 10.05L19.15 10.05L19.15 10.05Q19.95 10.05 20.71 9.85L20.71 9.85L20.71 9.85Q21.48 9.66 22.16 9.36L22.16 9.36L22.16 9.36Q22.83 9.06 23.40 8.70L23.40 8.70L23.40 8.70Q23.96 8.34 24.36 8.00L24.36 8.00L24.36 1.24L25.22 1.24L25.22 10.64L24.36 10.64L24.36 8.98L24.36 8.98Q23.88 9.29 23.31 9.62L23.31 9.62L23.31 9.62Q22.74 9.95 22.08 10.23L22.08 10.23L22.08 10.23Q21.42 10.51 20.67 10.68L20.67 10.68L20.67 10.68Q19.92 10.86 19.08 10.86L19.08 10.86L19.08 10.86Q18.13 10.86 17.42 10.62L17.42 10.62L17.42 10.62Q16.71 10.38 16.25 9.95L16.25 9.95L16.25 9.95Q15.78 9.52 15.54 8.93L15.54 8.93L15.54 8.93Q15.31 8.34 15.31 7.63L15.31 7.63L15.31 1.24ZM29.24 10.64L28.39 10.64L28.39 1.24L29.24 1.24L29.24 10.64ZM40.11 10.64L31.83 10.64L31.83 9.94L38.64 2.04L32.02 2.04L32.02 1.24L39.97 1.24L39.97 1.70L32.96 9.84L40.11 9.84L40.11 10.64ZM47.87 1.24L48.72 1.24L48.72 2.69L48.72 2.69Q49.02 2.43 49.39 2.13L49.39 2.13L49.39 2.13Q49.76 1.84 50.20 1.59L50.20 1.59L50.20 1.59Q50.65 1.35 51.17 1.18L51.17 1.18L51.17 1.18Q51.69 1.02 52.28 1.02L52.28 1.02L52.28 1.02Q53.23 1.02 53.96 1.45L53.96 1.45L53.96 1.45Q54.69 1.87 55.15 2.77L55.15 2.77L55.15 2.77Q55.58 2.37 56.05 2.04L56.05 2.04L56.05 2.04Q56.51 1.72 57.00 1.49L57.00 1.49L57.00 1.49Q57.49 1.26 58.01 1.14L58.01 1.14L58.01 1.14Q58.53 1.02 59.08 1.02L59.08 1.02L59.08 1.02Q59.79 1.02 60.36 1.26L60.36 1.26L60.36 1.26Q60.94 1.50 61.35 1.91L61.35 1.91L61.35 1.91Q61.75 2.33 61.97 2.90L61.97 2.90L61.97 2.90Q62.19 3.46 62.19 4.10L62.19 4.10L62.19 10.64L61.34 10.64L61.34 4.32L61.34 4.32Q61.34 3.73 61.20 3.27L61.20 3.27L61.20 3.27Q61.06 2.81 60.76 2.49L60.76 2.49L60.76 2.49Q60.46 2.17 60.00 2.00L60.00 2.00L60.00 2.00Q59.54 1.83 58.90 1.83L58.90 1.83L58.90 1.83Q58.39 1.83 57.88 1.98L57.88 1.98L57.88 1.98Q57.38 2.13 56.92 2.37L56.92 2.37L56.92 2.37Q56.46 2.61 56.07 2.92L56.07 2.92L56.07 2.92Q55.67 3.23 55.37 3.55L55.37 3.55L55.37 3.55Q55.41 3.75 55.41 3.88L55.41 3.88L55.41 3.88Q55.41 4.02 55.41 4.21L55.41 4.21L55.41 10.64L54.56 10.64L54.56 4.32L54.56 4.32Q54.56 3.62 54.37 3.15L54.37 3.15L54.37 3.15Q54.19 2.67 53.86 2.38L53.86 2.38L53.86 2.38Q53.53 2.08 53.08 1.96L53.08 1.96L53.08 1.96Q52.64 1.83 52.11 1.83L52.11 1.83L52.11 1.83Q51.61 1.83 51.12 2.00L51.12 2.00L51.12 2.00Q50.63 2.17 50.19 2.45L50.19 2.45L50.19 2.45Q49.75 2.72 49.37 3.06L49.37 3.06L49.37 3.06Q48.99 3.40 48.72 3.73L48.72 3.73L48.72 10.64L47.87 10.64L47.87 1.24ZM74.66 10.64L73.81 10.64L73.81 9.60L73.81 9.60Q73.32 9.86 72.70 10.09L72.70 10.09L72.70 10.09Q72.07 10.32 71.38 10.48L71.38 10.48L71.38 10.48Q70.68 10.64 69.95 10.73L69.95 10.73L69.95 10.73Q69.22 10.82 68.52 10.82L68.52 10.82L68.52 10.82Q67.60 10.82 66.87 10.66L66.87 10.66L66.87 10.66Q66.14 10.49 65.64 10.17L65.64 10.17L65.64 10.17Q65.13 9.84 64.86 9.36L64.86 9.36L64.86 9.36Q64.59 8.88 64.59 8.24L64.59 8.24L64.59 8.24Q64.59 7.62 64.90 7.13L64.90 7.13L64.90 7.13Q65.22 6.65 65.81 6.29L65.81 6.29L65.81 6.29Q66.40 5.93 67.23 5.68L67.23 5.68L67.23 5.68Q68.06 5.43 69.08 5.26L69.08 5.26L69.08 5.26Q70.11 5.09 71.30 4.97L71.30 4.97L71.30 4.97Q72.50 4.86 73.81 4.79L73.81 4.79L73.81 4.07L73.81 4.07Q73.81 3.63 73.65 3.29L73.65 3.29L73.65 3.29Q73.49 2.96 73.19 2.71L73.19 2.71L73.19 2.71Q72.90 2.46 72.50 2.29L72.50 2.29L72.50 2.29Q72.11 2.13 71.64 2.02L71.64 2.02L71.64 2.02Q71.18 1.92 70.67 1.88L70.67 1.88L70.67 1.88Q70.16 1.83 69.65 1.83L69.65 1.83L69.65 1.83Q68.96 1.83 68.39 1.90L68.39 1.90L68.39 1.90Q67.83 1.97 67.33 2.09L67.33 2.09L67.33 2.09Q66.84 2.21 66.39 2.37L66.39 2.37L66.39 2.37Q65.94 2.52 65.48 2.70L65.48 2.70L65.48 1.70L65.48 1.70Q66.43 1.45 67.51 1.26L67.51 1.26L67.51 1.26Q68.58 1.07 69.79 1.07L69.79 1.07L69.79 1.07Q70.82 1.07 71.71 1.25L71.71 1.25L71.71 1.25Q72.60 1.42 73.25 1.80L73.25 1.80L73.25 1.80Q73.91 2.19 74.29 2.79L74.29 2.79L74.29 2.79Q74.66 3.40 74.66 4.27L74.66 4.27L74.66 10.64ZM73.81 8.70L73.81 5.54L73.81 5.54Q71.58 5.67 70.00 5.89L70.00 5.89L70.00 5.89Q68.41 6.12 67.41 6.45L67.41 6.45L67.41 6.45Q66.40 6.77 65.94 7.21L65.94 7.21L65.94 7.21Q65.47 7.65 65.47 8.20L65.47 8.20L65.47 8.20Q65.47 8.65 65.70 9.00L65.70 9.00L65.70 9.00Q65.93 9.35 66.36 9.59L66.36 9.59L66.36 9.59Q66.79 9.82 67.40 9.94L67.40 9.94L67.40 9.94Q68.02 10.06 68.78 10.06L68.78 10.06L68.78 10.06Q69.23 10.06 69.72 10.01L69.72 10.01L69.72 10.01Q70.20 9.96 70.68 9.87L70.68 9.87L70.68 9.87Q71.16 9.78 71.62 9.65L71.62 9.65L71.62 9.65Q72.08 9.52 72.50 9.37L72.50 9.37L72.50 9.37Q72.91 9.22 73.24 9.05L73.24 9.05L73.24 9.05Q73.58 8.88 73.81 8.70L73.81 8.70ZM87.44 10.64L86.56 10.64L86.56 10.64Q86.49 9.87 86.18 9.25L86.18 9.25L86.18 9.25Q85.87 8.63 85.39 8.16L85.39 8.16L85.39 8.16Q84.91 7.68 84.29 7.33L84.29 7.33L84.29 7.33Q83.67 6.99 82.97 6.76L82.97 6.76L82.97 6.76Q82.27 6.54 81.53 6.43L81.53 6.43L81.53 6.43Q80.78 6.32 80.06 6.32L80.06 6.32L78.60 6.32L78.60 10.64L77.75 10.64L77.75 1.24L78.60 1.24L78.60 5.57L79.82 5.57L79.82 5.57Q80.55 5.57 81.28 5.44L81.28 5.44L81.28 5.44Q82.00 5.30 82.66 5.05L82.66 5.05L82.66 5.05Q83.32 4.79 83.89 4.42L83.89 4.42L83.89 4.42Q84.46 4.05 84.90 3.56L84.90 3.56L84.90 3.56Q85.34 3.08 85.62 2.50L85.62 2.50L85.62 2.50Q85.90 1.92 85.97 1.24L85.97 1.24L86.85 1.24L86.85 1.24Q86.78 1.99 86.52 2.59L86.52 2.59L86.52 2.59Q86.26 3.20 85.87 3.68L85.87 3.68L85.87 3.68Q85.49 4.17 85.02 4.54L85.02 4.54L85.02 4.54Q84.55 4.90 84.06 5.16L84.06 5.16L84.06 5.16Q83.58 5.43 83.11 5.60L83.11 5.60L83.11 5.60Q82.65 5.78 82.27 5.87L82.27 5.87L82.27 5.87Q82.74 5.94 83.29 6.09L83.29 6.09L83.29 6.09Q83.84 6.25 84.39 6.50L84.39 6.50L84.39 6.50Q84.94 6.76 85.46 7.13L85.46 7.13L85.46 7.13Q85.98 7.51 86.40 8.01L86.40 8.01L86.40 8.01Q86.81 8.52 87.09 9.17L87.09 9.17L87.09 9.17Q87.37 9.82 87.44 10.64L87.44 10.64ZM99.35 9.15L99.35 10.14L99.35 10.14Q98.78 10.32 98.29 10.45L98.29 10.45L98.29 10.45Q97.79 10.58 97.32 10.65L97.32 10.65L97.32 10.65Q96.84 10.73 96.34 10.77L96.34 10.77L96.34 10.77Q95.85 10.81 95.25 10.81L95.25 10.81L95.25 10.81Q93.87 10.81 92.76 10.47L92.76 10.47L92.76 10.47Q91.64 10.14 90.86 9.51L90.86 9.51L90.86 9.51Q90.08 8.89 89.65 8.00L89.65 8.00L89.65 8.00Q89.23 7.11 89.23 6.00L89.23 6.00L89.23 6.00Q89.23 4.93 89.64 4.03L89.64 4.03L89.64 4.03Q90.04 3.14 90.77 2.50L90.77 2.50L90.77 2.50Q91.51 1.85 92.52 1.50L92.52 1.50L92.52 1.50Q93.54 1.14 94.77 1.14L94.77 1.14L94.77 1.14Q96.05 1.14 97.05 1.48L97.05 1.48L97.05 1.48Q98.05 1.83 98.73 2.46L98.73 2.46L98.73 2.46Q99.42 3.10 99.77 4.00L99.77 4.00L99.77 4.00Q100.13 4.91 100.13 6.04L100.13 6.04L100.13 6.25L90.11 6.25L90.11 6.25Q90.19 7.13 90.55 7.83L90.55 7.83L90.55 7.83Q90.91 8.54 91.58 9.03L91.58 9.03L91.58 9.03Q92.24 9.52 93.22 9.79L93.22 9.79L93.22 9.79Q94.19 10.05 95.49 10.05L95.49 10.05L95.49 10.05Q96.04 10.05 96.61 9.97L96.61 9.97L96.61 9.97Q97.18 9.90 97.70 9.77L97.70 9.77L97.70 9.77Q98.22 9.65 98.65 9.48L98.65 9.48L98.65 9.48Q99.08 9.32 99.35 9.15L99.35 9.15ZM90.11 5.51L99.29 5.51L99.29 5.51Q99.24 4.79 98.96 4.14L98.96 4.14L98.96 4.14Q98.69 3.49 98.15 2.99L98.15 2.99L98.15 2.99Q97.60 2.49 96.77 2.19L96.77 2.19L96.77 2.19Q95.93 1.90 94.76 1.90L94.76 1.90L94.76 1.90Q93.66 1.90 92.83 2.19L92.83 2.19L92.83 2.19Q92.00 2.49 91.43 2.98L91.43 2.98L91.43 2.98Q90.86 3.48 90.53 4.13L90.53 4.13L90.53 4.13Q90.20 4.79 90.11 5.51L90.11 5.51ZM109.59 1.97L109.59 1.97L109.59 1.97Q109.39 1.91 109.04 1.84L109.04 1.84L109.04 1.84Q108.68 1.76 108.13 1.76L108.13 1.76L108.13 1.76Q107.37 1.76 106.69 1.95L106.69 1.95L106.69 1.95Q106.02 2.14 105.44 2.46L105.44 2.46L105.44 2.46Q104.86 2.78 104.37 3.21L104.37 3.21L104.37 3.21Q103.88 3.64 103.48 4.12L103.48 4.12L103.48 10.64L102.63 10.64L102.63 1.24L103.48 1.24L103.48 3.16L103.48 3.16Q103.94 2.69 104.48 2.29L104.48 2.29L104.48 2.29Q105.01 1.89 105.61 1.61L105.61 1.61L105.61 1.61Q106.20 1.33 106.86 1.17L106.86 1.17L106.86 1.17Q107.51 1.00 108.21 1.00L108.21 1.00L108.21 1.00Q108.45 1.00 108.64 1.02L108.64 1.02L108.64 1.02Q108.83 1.03 108.99 1.04L108.99 1.04L108.99 1.04Q109.15 1.06 109.29 1.08L109.29 1.08L109.29 1.08Q109.44 1.10 109.59 1.13L109.59 1.13L109.59 1.97Z"></path></g><!----><g data-v-423bf9ae="" id="88beca18-05b2-46a4-b8a9-3200bdbce197" transform="matrix(2.8125,0,0,2.8125,0,0)" stroke="none" fill="#5183C0"><path d="M11.579 32H32L21.789 14.314z"></path><circle cx="8.683" cy="8.683" r="8.683"></circle></g><!----></svg>